<svg xmlns="http://www.w3.org/2000/svg" width="124" height="124" fill="none" xmlns:v="https://vecta.io/nano"><rect width="124" height="124" rx="62" fill="url(#A)"/><g clip-path="url(#B)" fill="#fff"><path d="M29.946 75.001l-1.587 1.473c-.446.428-.466 1.135-.046 1.588s1.126.486 1.587.074l3.614-3.35c1.222-1.177 3.156-1.177 4.378 0l.654.606a5.44 5.44 0 0 0 7.461 0l.653-.606a3.16 3.16 0 0 1 4.379 0l.653.606a5.44 5.44 0 0 0 7.461 0l.654-.606a3.16 3.16 0 0 1 4.379 0l.653.606a5.44 5.44 0 0 0 7.461 0l.654-.606a3.16 3.16 0 0 1 4.379 0l.653.606a5.44 5.44 0 0 0 7.461 0l.655-.606c1.222-1.177 3.156-1.177 4.378 0l3.613 3.35c.295.284.721.386 1.113.268s.69-.439.779-.839-.045-.817-.35-1.09l-3.613-3.35a5.46 5.46 0 0 0-3.101-1.421c.249-.476.466-.968.65-1.473l6.358-17.476c.126-.347.075-.733-.136-1.036a1.13 1.13 0 0 0-.925-.484H89.92l-8.149-17.314c-.563-1.19-1.76-1.949-3.076-1.953H56.333a3.4 3.4 0 0 0-3.4 3.4c-.004 1.149.697 2.183 1.765 2.607l3.322 1.329a.54.54 0 0 1 .33.606L54.271 60.3H43.867v-4.533c0-2.504-2.03-4.533-4.533-4.533s-4.533 2.03-4.533 4.533v12.467h-4.533v-9.067c0-.626-.507-1.133-1.133-1.133S28 58.541 28 59.167v13.6c.005 1.124.833 2.075 1.946 2.234zm2.49-2.234h-2.169V70.5h9.067v2.54a5.41 5.41 0 0 0-6.897-.273zM90.774 60.3H78.336l1.465-1.465c.43-.445.423-1.152-.014-1.589s-1.144-.443-1.589-.014L75.131 60.3h-2.462l1.465-1.465c.429-.445.423-1.152-.014-1.589s-1.144-.443-1.589-.014L69.464 60.3h-4.387a29.5 29.5 0 0 0 4.176-3.142c2.3-1.958 4.284-3.658 7.48-3.658h16.515l-2.474 6.8zm-5.493-13.6H66.533l1.773-7.933h13.242l3.733 7.933zm-24.707-6.347a2.81 2.81 0 0 0-1.71-3.156l-3.324-1.328a.54.54 0 0 1-.34-.502c0-.626.507-1.133 1.133-1.133h22.362a1.14 1.14 0 0 1 1.026.651l.761 1.616h-12.18c-1.062.002-1.983.736-2.221 1.771l-1.771 7.95c-.141.675.03 1.378.466 1.912a2.25 2.25 0 0 0 1.759.833h19.814l1.067 2.267H76.733c-4.032 0-6.532 2.136-8.953 4.202-2.758 2.355-5.616 4.785-11.199 4.858l3.993-19.94zm-4.241 22.213H89.95l-.825 2.267H49.533c-.626 0-1.133.508-1.133 1.133s.507 1.133 1.133 1.133H88.3l-.858 2.36a9.76 9.76 0 0 1-1.537 2.761 5.5 5.5 0 0 0-1.342.899l-.654.605a3.16 3.16 0 0 1-4.379 0l-.653-.605a5.44 5.44 0 0 0-7.461 0l-.655.605c-1.222 1.177-3.156 1.177-4.378 0l-.653-.605a5.44 5.44 0 0 0-7.462 0l-.654.605c-1.222 1.177-3.156 1.177-4.378 0l-.653-.605a5.44 5.44 0 0 0-7.462 0l-.653.605a3.16 3.16 0 0 1-2.87.793V67.1H45c.626 0 1.133-.507 1.133-1.133s-.507-1.133-1.133-1.133h-3.4v-2.267h14.733zm-19.267-6.8a2.27 2.27 0 0 1 2.267-2.267 2.27 2.27 0 0 1 2.267 2.267V60.3a2.27 2.27 0 0 0-2.267 2.267v5.667h-2.267V55.767zm58.571 27.503l-3.613-3.35a5.44 5.44 0 0 0-7.461 0l-.654.605a3.16 3.16 0 0 1-4.379 0l-.653-.605a5.44 5.44 0 0 0-7.461 0l-.655.605c-1.222 1.177-3.156 1.177-4.378 0l-.653-.605a5.44 5.44 0 0 0-7.462 0l-.654.605c-1.222 1.177-3.156 1.177-4.378 0l-.653-.605a5.44 5.44 0 0 0-7.462 0l-.653.605a3.16 3.16 0 0 1-4.379 0l-.653-.605a5.44 5.44 0 0 0-7.461 0l-3.614 3.35c-.305.273-.439.69-.35 1.09s.387.721.779.839.818.016 1.113-.268l3.614-3.35c1.222-1.177 3.156-1.177 4.378 0l.654.606a5.44 5.44 0 0 0 7.461 0l.653-.606a3.16 3.16 0 0 1 4.379 0l.653.606a5.44 5.44 0 0 0 7.461 0l.654-.606a3.16 3.16 0 0 1 4.379 0l.653.606a5.44 5.44 0 0 0 7.461 0l.654-.606a3.16 3.16 0 0 1 4.379 0l.653.606a5.44 5.44 0 0 0 7.461 0l.655-.606c1.222-1.177 3.156-1.177 4.378 0l3.613 3.35c.295.284.721.386 1.113.268s.69-.439.779-.839-.045-.817-.35-1.09zm-.77 8.764c.466 0 .885-.285 1.055-.719s.058-.928-.284-1.245l-3.613-3.35a5.44 5.44 0 0 0-7.461 0l-.654.605a3.16 3.16 0 0 1-4.379 0l-.653-.605a5.44 5.44 0 0 0-7.461 0l-.655.605c-1.222 1.177-3.156 1.177-4.378 0l-.653-.605a5.44 5.44 0 0 0-7.462 0l-.654.605c-1.222 1.177-3.156 1.177-4.378 0l-.653-.605a5.44 5.44 0 0 0-7.462 0l-.653.605a3.16 3.16 0 0 1-4.379 0l-.653-.605a5.44 5.44 0 0 0-7.461 0l-3.614 3.35c-.305.273-.439.69-.35 1.09s.387.721.779.839.818.016 1.113-.268l3.614-3.35c1.222-1.177 3.156-1.177 4.378 0l.654.606a5.44 5.44 0 0 0 7.461 0l.653-.606a3.16 3.16 0 0 1 4.379 0l.653.606c2.096 1.971 5.364 1.971 7.461 0l.654-.606a3.16 3.16 0 0 1 4.379 0l.653.606c2.096 1.971 5.364 1.971 7.461 0l.654-.606a3.16 3.16 0 0 1 4.379 0l.653.606a5.44 5.44 0 0 0 7.461 0l.655-.606c1.222-1.177 3.156-1.177 4.378 0l3.613 3.35a1.13 1.13 0 0 0 .771.303z"/></g><defs><linearGradient id="A" x1="107.5" y1="20" x2="27.701" y2="113.706" gradientUnits="userSpaceOnUse"><stop stop-color="#00c9c8"/><stop offset="1" stop-color="#7d9bd3"/></linearGradient><clipPath id="B"><path fill="#fff" transform="translate(28 28)" d="M0 0h68v68H0z"/></clipPath></defs></svg>