<svg xmlns="http://www.w3.org/2000/svg" width="124" height="124" fill="none" xmlns:v="https://vecta.io/nano"><rect width="124" height="124" rx="62" fill="url(#A)"/><g clip-path="url(#B)" fill="#fff"><path d="M48.4 56.333c.626 0 1.133-.507 1.133-1.133s.507-1.133 1.133-1.133 1.133-.507 1.133-1.133-.507-1.133-1.133-1.133a3.4 3.4 0 0 0-3.4 3.4c0 .626.507 1.133 1.133 1.133zm43.804 30.871l-.844-.417-.474-.255-.553-.297v-9.502a5.65 5.65 0 0 0-1.667-3.999 12.37 12.37 0 0 0 1.667-6.201V31.4a3.4 3.4 0 0 0-6.8 0v35.133c-.004 3.128-2.539 5.663-5.667 5.667h-1.005a11.64 11.64 0 0 0 1.224-5.798 5.68 5.68 0 0 0 3.181-5.082V51.8a4.53 4.53 0 0 0-2.048-3.784l-.107-3.635c-.619-13.292-15.766-14.107-15.968-14.114h-2.339c-.152.007-15.3.822-15.918 14.117l-.107 3.627c-1.278.838-2.047 2.262-2.048 3.79v9.52c.008 2.16 1.24 4.129 3.179 5.081-.068 1.586.17 3.17.701 4.666h-7.28c-3.128.004-5.663 2.539-5.667 5.667v9.503l-.606.325-.422.227a19.12 19.12 0 0 1-.843.416 7.21 7.21 0 0 0-3.334 2.465A3.59 3.59 0 0 0 28 91.467v3.4c0 .626.508 1.133 1.133 1.133h65.733c.626 0 1.133-.507 1.133-1.133v-3.429a3.56 3.56 0 0 0-.453-1.758c-.847-1.135-2.009-1.996-3.342-2.475zm-4.138-10.471v8.261l-1.529-.856a19.33 19.33 0 0 0-6.134-2.48 10.12 10.12 0 0 1-3.052-1.19c-.776-.437-1.521-.928-2.228-1.469h2.743c3.637-.001 7.091-1.595 9.453-4.361.478.594.742 1.332.747 2.094zM62 89.2c-7.751 0-9.715-4.08-10.2-5.837v-5.456c.604.793 1.111 1.567 1.579 2.288 1.558 2.399 2.904 4.471 6.343 4.471h4.556c3.444 0 4.793-2.075 6.356-4.477l.793-1.19h.773v4.42c-.156.68-1.627 5.78-10.2 5.78zm-9.71-19.955a7.94 7.94 0 0 0 3.216.688h2.552c.07.099.141.196.227.292a5.64 5.64 0 0 0-.675 7.788c1.902 2.356 5.324 2.792 7.755.986h3.339c-1.533 2.355-2.315 3.4-4.426 3.4h-4.556c-2.119 0-2.893-1.054-4.443-3.439a25.65 25.65 0 0 0-3.91-4.941c-1.946-1.647-3.099-4.043-3.173-6.591l4.094 1.817zm17.644-1.792a5.56 5.56 0 0 1-1.439.213h-2.051c-.06-.25-.157-.489-.288-.71a29.7 29.7 0 0 1-.772-1.392C64.361 63.652 63.473 62 62 62s-2.361 1.652-3.383 3.566c-.257.482-.513.963-.77 1.389-.131.222-.229.462-.289.712h-2.053a5.56 5.56 0 0 1-1.439-.213v-.92c0-4.381 3.552-7.933 7.933-7.933s7.933 3.552 7.933 7.933v.92zm-10.147.673c.277-.46.553-.977.829-1.493a13.97 13.97 0 0 1 1.385-2.267 13.98 13.98 0 0 1 1.385 2.267 33.95 33.95 0 0 0 .831 1.496c.16.264-.2.657-.551.949a5.11 5.11 0 0 0-3.33 0c-.351-.291-.715-.684-.549-.952zM62 71.067a3.4 3.4 0 1 1 0 6.8 3.4 3.4 0 0 1 0-6.8zm23.8-4.533V31.4c0-.626.508-1.133 1.133-1.133s1.133.507 1.133 1.133v35.133c-.006 5.631-4.569 10.194-10.2 10.2h-10.68a5.61 5.61 0 0 0 .481-2.267h10.2c4.379-.005 7.928-3.554 7.933-7.933zM67.186 72.2c-.338-.758-.839-1.431-1.467-1.974.082-.096.153-.194.227-.292h2.548c1.107-.002 2.202-.236 3.213-.687l4.1-1.813c-.047 1.713-.604 3.372-1.599 4.767h-7.022zm-6.331-39.667h2.238c.526.024 12.569.707 13.683 11.092A19.98 19.98 0 0 0 62 35.933a19.98 19.98 0 0 0-14.776 7.691c1.117-10.385 13.156-11.068 13.632-11.091zm15.606 14.733H47.539c2.982-5.268 8.42-8.677 14.461-9.067a17.94 17.94 0 0 1 14.461 9.067zM45 61.32V51.8a2.27 2.27 0 0 1 2.267-2.267h29.467a2.27 2.27 0 0 1 2.267 2.267v9.52a3.42 3.42 0 0 1-2.023 3.112L72.2 66.549v-.016c0-5.633-4.567-10.2-10.2-10.2s-10.2 4.567-10.2 10.2v.016l-4.772-2.116A3.42 3.42 0 0 1 45 61.32zm-9.067 15.413a3.4 3.4 0 0 1 3.4-3.4h8.475c.509.737 1.087 1.425 1.725 2.054v3.092a19.63 19.63 0 0 1-2.889 1.995 10.12 10.12 0 0 1-3.042 1.187 19.33 19.33 0 0 0-6.13 2.475l-1.539.861v-8.263zm-5.667 14.763a1.38 1.38 0 0 1 .156-.69c.644-.701 1.448-1.234 2.345-1.554.34-.164.671-.32.952-.473l.409-.219 4.469-2.459a16.95 16.95 0 0 1 5.405-2.212 12.34 12.34 0 0 0 3.748-1.44 20.62 20.62 0 0 0 1.783-1.124v2.209c0 .242.077.477.22.672-.056-.077-.103-.16-.141-.247.601 2.162 2.883 7.055 11.254 7.468v2.307h-30.6v-2.237zm63.467 2.237h-30.6v-2.317c9.973-.516 11.305-7.623 11.317-7.696a1.15 1.15 0 0 0 .016-.187v-2.209a20.39 20.39 0 0 0 1.779 1.123 12.37 12.37 0 0 0 3.758 1.443c1.918.421 3.748 1.171 5.409 2.217l4.404 2.424.461.247c.282.154.609.309.953.474a5.83 5.83 0 0 1 2.352 1.564 1.35 1.35 0 0 1 .15.651v2.267zM34.8 68.8c2.504 0 4.533-2.03 4.533-4.533s-2.03-4.533-4.533-4.533-4.533 2.03-4.533 4.533S32.297 68.8 34.8 68.8zm0-6.8a2.27 2.27 0 0 1 2.267 2.267 2.27 2.27 0 0 1-2.267 2.267 2.27 2.27 0 0 1-2.267-2.267A2.27 2.27 0 0 1 34.8 62zm2.267-5.667a3.4 3.4 0 1 0-3.4-3.4 3.4 3.4 0 0 0 3.4 3.4zm0-4.533c.626 0 1.133.507 1.133 1.133s-.507 1.133-1.133 1.133-1.133-.507-1.133-1.133.507-1.133 1.133-1.133zM31.4 58.6c.626 0 1.133-.507 1.133-1.133s-.507-1.133-1.133-1.133-1.133.507-1.133 1.133.508 1.133 1.133 1.133z"/></g><defs><linearGradient id="A" x1="25.707" y1="13.61" x2="108.212" y2="102.978" gradientUnits="userSpaceOnUse"><stop stop-color="#00c9c8"/><stop offset="1" stop-color="#7d9bd3"/></linearGradient><clipPath id="B"><path fill="#fff" transform="translate(28 28)" d="M0 0h68v68H0z"/></clipPath></defs></svg>