<svg width="186" height="58" viewBox="0 0 186 58" fill="none" xmlns="http://www.w3.org/2000/svg">
<g clip-path="url(#clip0)">
<path d="M21.5399 53.6338L20.1416 51.3888C19.54 50.4216 19.1351 49.3653 18.936 48.2477C18.7369 47.1301 18.7519 45.9983 18.9826 44.8835L19.2023 43.823C19.3913 42.9061 19.4051 41.9728 19.2408 41.0506C19.0764 40.1277 18.741 39.2566 18.2469 38.4606L17.6747 37.5428C17.073 36.5755 16.6682 35.5192 16.469 34.4017C16.2699 33.2841 16.2849 32.1522 16.5156 31.0375L16.8841 29.2577L18.4136 29.5756L18.0449 31.3546C17.8555 32.2732 17.8424 33.2063 18.0064 34.127C18.1706 35.0484 18.5052 35.9196 19.0004 36.717L19.5726 37.6348C20.1732 38.6007 20.578 39.657 20.7774 40.776C20.9768 41.8951 20.9617 43.0263 20.7316 44.1401L20.5119 45.2006C20.3224 46.1192 20.3093 47.0523 20.4734 47.973C20.6376 48.8944 20.9721 49.7656 21.4673 50.563L22.8655 52.8073L21.5399 53.6338Z" fill="#C1C8D1"/>
<path d="M44.5043 49.5422L42.975 49.2251L43.5111 46.6354C43.6997 45.717 43.7136 44.7837 43.5496 43.863C43.3855 42.9424 43.05 42.0705 42.555 41.2739L41.9828 40.3561C41.382 39.3895 40.9772 38.3332 40.7779 37.2149C40.5787 36.0966 40.5937 34.9647 40.8238 33.8516L41.0436 32.7911C41.2331 31.8725 41.2469 30.9392 41.0829 30.0186C40.9188 29.0979 40.5834 28.226 40.0883 27.4294L39.128 25.888L40.4536 25.0615L41.414 26.6036C42.0156 27.5709 42.4205 28.6272 42.6196 29.7448C42.8187 30.8623 42.8037 31.9942 42.5731 33.109L42.3533 34.1694C42.1648 35.0847 42.1518 36.0178 42.3161 36.94C42.4805 37.863 42.8151 38.7342 43.3093 39.5302L43.8815 40.448C44.4831 41.4152 44.888 42.4715 45.0871 43.5891C45.2862 44.7067 45.2712 45.8385 45.0405 46.9533L44.5043 49.5422Z" fill="#C1C8D1"/>
<path d="M47.3921 43.4855L45.8627 43.1683L46.3996 40.5786C46.5886 39.6617 46.6024 38.7284 46.4387 37.8053C46.2747 36.8846 45.9394 36.0135 45.4443 35.2169L44.872 34.2984C44.2704 33.3319 43.8656 32.2756 43.6665 31.158C43.4672 30.0397 43.4823 28.9085 43.713 27.7938L43.9329 26.7341C44.1219 25.8172 44.1357 24.8839 43.9714 23.9617C43.807 23.0387 43.4716 22.1676 42.9776 21.3724L41.6654 19.5081L42.944 18.6097L44.2802 20.5103C44.9046 21.5116 45.3095 22.5687 45.5089 23.6877C45.7083 24.8068 45.6932 25.938 45.463 27.0511L45.2424 28.1109C45.0529 29.0295 45.0398 29.9626 45.204 30.8841C45.3682 31.8055 45.7026 32.6759 46.1977 33.4726L46.77 34.3911C47.3715 35.3576 47.7771 36.4138 47.9764 37.5321C48.1744 38.6522 48.1593 39.7833 47.9289 40.8957L47.3921 43.4855Z" fill="#C1C8D1"/>
<path d="M16.7371 48.9474L15.3389 46.7024C14.7384 45.7373 14.3335 44.681 14.1341 43.5619C13.9336 42.4454 13.9494 41.3133 14.1801 40.1985L14.3999 39.1389C14.5893 38.2195 14.6032 37.287 14.4391 36.3656C14.2749 35.4441 13.9397 34.5738 13.4446 33.7772L12.8723 32.8587C12.2717 31.8928 11.8668 30.8365 11.6674 29.7174C11.4681 28.5983 11.4832 27.4672 11.7134 26.3541L12.2474 23.7529L13.7779 24.0674L13.2433 26.6703C13.0545 27.588 13.0413 28.5204 13.2057 29.4433C13.3702 30.3663 13.7047 31.2375 14.1988 32.0327L14.7711 32.9513C15.3725 33.917 15.7781 34.9732 15.9773 36.0915C16.1766 37.2098 16.1607 38.3411 15.93 39.4559L15.71 40.5148C15.5207 41.4341 15.5075 42.3665 15.6723 43.287C15.8367 44.21 16.1713 45.0812 16.6653 45.8764L18.0636 48.1214L16.7371 48.9474Z" fill="#C1C8D1"/>
<path d="M42.3778 19.4716L42.7557 21.5921C42.9525 22.6966 42.7027 23.8338 42.0604 24.7537C41.4885 25.5746 40.6137 26.1344 39.6285 26.3099C38.6432 26.4854 37.629 26.2622 36.8089 25.6902L36.653 25.5815C35.8329 25.0094 34.8187 24.7862 33.8334 24.9618C32.8481 25.1373 31.9734 25.6971 31.4013 26.5172L31.2926 26.673C30.7206 27.4931 29.8458 28.0529 28.8606 28.2284C27.8753 28.404 26.861 28.1808 26.0409 27.6087L25.8851 27.5C25.065 26.928 24.0507 26.7048 23.0655 26.8803C22.0802 27.0558 21.2055 27.6156 20.6334 28.4357L20.5247 28.5916C19.9526 29.4117 19.0779 29.9714 18.0926 30.147C17.1074 30.3225 16.0931 30.0993 15.273 29.5273C14.3523 28.8851 13.7252 27.9041 13.5285 26.7996L13.1506 24.6791" fill="#A8B0BC"/>
<path d="M41.7457 20.3778L14.0568 25.3112C13.2069 25.4626 12.3959 24.8969 12.2444 24.047C10.7307 15.5511 16.3905 7.4372 24.8864 5.92347C33.3823 4.40974 41.4962 10.0696 43.0099 18.5654C43.1613 19.4153 42.5956 20.2264 41.7457 20.3778Z" fill="#C7E2FC"/>
<path d="M20.8197 9.82224C18.6684 10.2055 16.7009 11.0148 14.984 12.1436C12.5829 15.4583 11.4697 19.699 12.2444 24.047C12.3958 24.8969 13.2068 25.4626 14.0567 25.3112L38.5914 20.9398C36.4343 13.3045 28.7964 8.40101 20.8197 9.82224Z" fill="#EBF7FE"/>
<path d="M35.6834 50.0259L36.3841 49.9011C37.9569 49.6208 39.2 48.4114 39.5237 46.8475C39.7332 45.8365 39.7476 44.7952 39.5666 43.7791C39.3856 42.7631 39.0124 41.7908 38.4666 40.9144L37.895 39.9957C37.3492 39.1193 36.976 38.147 36.795 37.131C36.6139 36.115 36.6284 35.0736 36.8379 34.0626L37.057 33.0031C37.2665 31.992 37.2809 30.9507 37.0999 29.9347C36.9189 28.9186 36.5457 27.9464 35.9999 27.0699L34.6535 24.9069C34.3808 24.8952 34.1063 24.9132 33.8332 24.9618C32.848 25.1374 31.9732 25.6972 31.4012 26.5172L31.2924 26.6731C31.2052 26.7982 31.1106 26.9174 31.01 27.0297L31.0307 27.0483L32.4283 29.2934C32.9741 30.1698 33.3473 31.1421 33.5283 32.1581C33.7093 33.1742 33.6949 34.2155 33.4854 35.2265L33.2663 36.2861C33.0568 37.2971 33.0423 38.3384 33.2234 39.3545C33.4044 40.3705 33.7776 41.3428 34.3234 42.2192L34.895 43.1379C35.4408 44.0143 35.814 44.9866 35.995 46.0026C36.176 47.0186 36.1616 48.06 35.9521 49.071L35.8911 49.3659C35.8439 49.595 35.7738 49.8162 35.6834 50.0259Z" fill="#C7E2FC"/>
<path d="M29.9687 51.044L29.268 51.1689C27.6951 51.4491 26.1108 50.7434 25.267 49.3876C24.7212 48.5112 24.348 47.5389 24.1669 46.5229C23.9859 45.5068 24.0003 44.4655 24.2098 43.4545L24.429 42.3949C24.6385 41.3839 24.6529 40.3426 24.4719 39.3266C24.2908 38.3105 23.9176 37.3383 23.3718 36.4618L22.8003 35.5431C22.2545 34.6667 21.8813 33.6944 21.7002 32.6784C21.5192 31.6624 21.5336 30.621 21.7431 29.61L22.2596 27.1151C22.5115 27.0099 22.7761 26.9318 23.0484 26.8833C24.0336 26.7078 25.0479 26.931 25.868 27.503L26.0238 27.6117C26.1489 27.699 26.2789 27.7782 26.4121 27.8489L26.399 27.8734L25.8629 30.4631C25.6534 31.4741 25.639 32.5154 25.82 33.5315C26.001 34.5475 26.3742 35.5198 26.92 36.3962L27.4916 37.3149C28.0374 38.1913 28.4106 39.1636 28.5916 40.1796C28.7727 41.1957 28.7582 42.237 28.5487 43.248L28.3296 44.3076C28.1201 45.3186 28.1057 46.3599 28.2867 47.3759C28.4677 48.392 28.8409 49.3642 29.3867 50.2407L29.5458 50.4964C29.6692 50.6951 29.8114 50.8784 29.9687 51.044Z" fill="#C7E2FC"/>
<path d="M31.031 27.0482L32.4285 29.2934C32.9743 30.1698 33.3475 31.1421 33.5285 32.1581C33.7095 33.1741 33.6951 34.2155 33.4856 35.2265L33.2665 36.286C33.057 37.297 33.0425 38.3384 33.2236 39.3544C33.4046 40.3704 33.7778 41.3427 34.3236 42.2191L34.8952 43.1378C35.441 44.0143 35.8142 44.9865 35.9952 46.0026C36.1762 47.0186 36.1618 48.0599 35.9523 49.0709L35.8914 49.3659C35.6042 50.7518 34.5025 51.8234 33.1088 52.0717C31.7151 52.32 30.311 51.6949 29.5629 50.4934L29.4039 50.2377C28.8581 49.3612 28.4849 48.389 28.3038 47.3729C28.1228 46.3569 28.1372 45.3156 28.3467 44.3046L28.5658 43.245C28.7753 42.234 28.7898 41.1927 28.6088 40.1766C28.4277 39.1606 28.0545 38.1883 27.5087 37.3119L26.9372 36.3932C26.3914 35.5168 26.0182 34.5445 25.8371 33.5285C25.6561 32.5125 25.6705 31.4711 25.88 30.4601L26.4161 27.8704L26.4292 27.8459C27.17 28.24 28.0261 28.3772 28.8606 28.2285C29.6951 28.0798 30.4511 27.6554 31.0102 27.0297L31.031 27.0482Z" fill="#EBF7FE"/>
<path d="M18.1233 21.4124C19.3976 21.1854 20.2466 19.9683 20.0196 18.6939C19.7925 17.4196 18.5754 16.5706 17.3011 16.7976C16.0267 17.0247 15.1777 18.2418 15.4048 19.5162C15.6318 20.7905 16.8489 21.6395 18.1233 21.4124Z" fill="#C7E2FC"/>
<path d="M20.8726 14.5741C21.7221 14.4228 22.2881 13.6114 22.1368 12.7618C21.9854 11.9122 21.174 11.3462 20.3244 11.4976C19.4748 11.649 18.9088 12.4604 19.0602 13.3099C19.2116 14.1595 20.023 14.7255 20.8726 14.5741Z" fill="#C7E2FC"/>
</g>
<path fill-rule="evenodd" clip-rule="evenodd" d="M72.3601 19.8825C73.3201 20.6185 74.0881 21.4505 74.6641 22.3785C75.3681 23.4665 75.9441 24.6025 76.3921 25.7865C76.8721 26.9385 77.2561 28.1545 77.5441 29.4345C77.7041 29.9465 77.8001 30.4585 77.8321 30.9705C77.8961 31.4505 77.9441 31.9465 77.9761 32.4585C77.9121 33.9625 77.8481 35.4825 77.7841 37.0185C77.7521 38.5225 77.5921 40.0105 77.3041 41.4825C77.3041 41.5145 77.2881 41.5305 77.2561 41.5305V41.5785C76.6161 43.4665 75.7361 45.2585 74.6161 46.9545C73.5281 48.6505 72.3761 50.2505 71.1601 51.7545C69.0481 51.8185 66.9201 51.8665 64.7761 51.8985H58.5361L58.4881 51.9465C58.1361 49.4185 57.9121 46.8105 57.8161 44.1225C57.7201 41.4025 57.6721 38.6505 57.6721 35.8665C57.6721 33.0825 57.6881 30.2825 57.7201 27.4665C57.7841 24.6185 57.7841 21.8025 57.7201 19.0185C57.7521 18.9865 57.7681 18.9545 57.7681 18.9225L57.8641 18.8265C58.7601 18.6025 59.6881 18.4585 60.6481 18.3945C61.6401 18.2985 62.6321 18.2665 63.6241 18.2985C64.6161 18.2985 65.5921 18.3145 66.5521 18.3465C67.5441 18.3785 68.5041 18.3785 69.4321 18.3465C70.4561 18.6025 71.4321 19.1145 72.3601 19.8825ZM69.5761 40.6665C69.8321 40.3785 70.0561 40.0905 70.2481 39.8025C70.7921 38.9705 71.1761 38.0585 71.4001 37.0665C71.6561 36.0745 71.6561 34.9865 71.4001 33.8025C71.3041 33.3225 71.1921 32.8265 71.0641 32.3145C70.9361 31.7705 70.7441 31.2585 70.4881 30.7785C70.2641 30.2985 69.9761 29.8825 69.6241 29.5305C69.2721 29.1465 68.8241 28.8585 68.2801 28.6665C67.7361 28.6025 67.1441 28.5705 66.5041 28.5705C65.8641 28.5385 65.2561 28.5865 64.6801 28.7145H64.5841H64.5361V28.9065C64.6001 29.7705 64.6321 30.6985 64.6321 31.6905C64.6321 32.6825 64.6161 33.7225 64.5841 34.8105C64.5521 35.8665 64.5361 36.9545 64.5361 38.0745C64.5361 39.1625 64.5681 40.2505 64.6321 41.3385C64.9841 41.6585 65.4641 41.8025 66.0721 41.7705C66.7121 41.7385 67.3201 41.6905 67.8961 41.6265C68.0561 41.6585 68.2001 41.6425 68.3281 41.5785C68.4561 41.4825 68.6001 41.4025 68.7601 41.3385C69.0801 41.1465 69.3521 40.9225 69.5761 40.6665ZM86.1084 18.2505C86.8764 18.2825 87.9804 18.2825 89.4204 18.2505H90.5724V18.4425C90.5724 21.1945 90.5244 23.9625 90.4284 26.7465C90.3644 29.5305 90.3004 32.3305 90.2364 35.1465C90.2044 37.9305 90.2044 40.7145 90.2364 43.4985C90.2684 46.2825 90.3644 49.0345 90.5244 51.7545C90.2684 52.0105 89.7244 52.1545 88.8924 52.1865C88.0924 52.2505 87.2124 52.2665 86.2524 52.2345C85.3244 52.2025 84.4284 52.1545 83.5644 52.0905C82.7004 52.0585 82.1084 52.0905 81.7884 52.1865C82.0124 49.3065 82.1084 46.4105 82.0764 43.4985C82.0444 40.5865 81.9804 37.7065 81.8844 34.8585C81.8204 31.9785 81.7724 29.1465 81.7404 26.3625C81.7404 23.5465 81.8844 20.7945 82.1724 18.1065V18.0105C82.3324 17.9785 82.6364 17.9945 83.0844 18.0585C83.5644 18.0905 83.9164 18.1065 84.1404 18.1065C84.7164 18.1385 85.3724 18.1865 86.1084 18.2505ZM112.977 19.0185C113.585 19.0185 114.161 19.0665 114.705 19.1625C114.161 22.0105 113.569 24.7945 112.929 27.5145C112.321 30.2345 111.681 32.9385 111.009 35.6265C110.337 38.3145 109.649 41.0185 108.945 43.7385C108.241 46.4265 107.505 49.1625 106.737 51.9465C106.481 51.9465 106.081 51.9785 105.537 52.0425C104.993 52.1065 104.385 52.1385 103.713 52.1385C103.009 52.1385 102.289 52.1065 101.553 52.0425C100.849 52.0105 100.241 51.9145 99.7291 51.7545C98.2891 46.5705 97.1051 41.2585 96.1771 35.8185C95.2491 30.3465 94.5611 24.8425 94.1131 19.3065V19.2585C94.3051 19.0345 94.7211 18.8745 95.3611 18.7785C96.0011 18.6825 96.6891 18.6345 97.4251 18.6345C98.1611 18.6025 98.8651 18.6025 99.5371 18.6345C100.209 18.6665 100.673 18.7145 100.929 18.7785C101.057 19.4185 101.137 20.4585 101.169 21.8985C101.201 23.3385 101.281 25.0665 101.409 27.0825C101.537 29.0985 101.745 31.3225 102.033 33.7545C102.353 36.1865 102.833 38.6985 103.473 41.2905C104.081 38.6985 104.577 36.3305 104.961 34.1865C105.345 32.0105 105.681 30.0105 105.969 28.1865C106.257 26.3625 106.529 24.6825 106.785 23.1465C107.041 21.6105 107.345 20.1705 107.697 18.8265C107.697 18.7625 107.729 18.7305 107.793 18.7305C108.337 18.8585 108.897 18.9385 109.473 18.9705H111.201C111.809 18.9705 112.401 18.9865 112.977 19.0185ZM131.334 45.4185C133.382 45.5145 135.494 45.5305 137.67 45.4665V45.5625C137.734 46.5865 137.75 47.6585 137.718 48.7785C137.686 49.8665 137.542 50.8905 137.286 51.8505C134.022 51.8185 130.694 51.8665 127.302 51.9945C123.942 52.0905 120.71 52.0105 117.606 51.7545C117.606 48.9705 117.574 46.2185 117.51 43.4985C117.446 40.7465 117.398 38.0105 117.366 35.2905C117.334 32.5705 117.334 29.8505 117.366 27.1305C117.398 24.4105 117.494 21.6745 117.654 18.9225C118.902 18.8585 120.246 18.8105 121.686 18.7785C123.158 18.7145 124.63 18.6665 126.102 18.6345C127.574 18.6025 128.998 18.5705 130.374 18.5385C131.75 18.5065 132.966 18.4905 134.022 18.4905C135.078 18.4905 135.926 18.5065 136.566 18.5385C137.206 18.5705 137.526 18.6025 137.526 18.6345C137.686 19.7545 137.718 20.8905 137.622 22.0425C137.558 23.1945 137.526 24.3305 137.526 25.4505V25.4985C136.502 25.7225 135.462 25.8665 134.406 25.9305C133.382 25.9625 132.342 25.9785 131.286 25.9785C130.23 25.9465 129.174 25.9305 128.118 25.9305C127.062 25.9305 126.006 25.9785 124.95 26.0745H124.806L124.758 26.1225C124.79 27.0505 124.742 28.0105 124.614 29.0025C124.518 29.9625 124.582 30.8745 124.806 31.7385L124.854 31.7865C125.814 31.8505 126.79 31.8825 127.782 31.8825C128.774 31.8825 129.766 31.8985 130.758 31.9305V31.9785C130.918 33.0665 130.966 34.1545 130.902 35.2425C130.838 36.3305 130.822 37.4665 130.854 38.6505C130.374 38.7785 129.83 38.8585 129.222 38.8905H127.446C126.902 38.8905 126.406 38.9065 125.958 38.9385C125.51 38.9705 125.206 39.0505 125.046 39.1785C124.886 40.1065 124.822 41.1465 124.854 42.2985C124.918 43.4505 124.982 44.4105 125.046 45.1785L125.094 45.2265C127.206 45.2265 129.286 45.2905 131.334 45.4185ZM156.276 18.2505C157.044 18.2825 158.148 18.2825 159.588 18.2505H160.74V18.4425C160.74 21.1945 160.692 23.9625 160.596 26.7465C160.532 29.5305 160.468 32.3305 160.404 35.1465C160.372 37.9305 160.372 40.7145 160.404 43.4985C160.436 46.2825 160.532 49.0345 160.692 51.7545C160.436 52.0105 159.892 52.1545 159.06 52.1865C158.26 52.2505 157.38 52.2665 156.42 52.2345C155.492 52.2025 154.596 52.1545 153.732 52.0905C152.868 52.0585 152.276 52.0905 151.956 52.1865C152.18 49.3065 152.276 46.4105 152.244 43.4985C152.212 40.5865 152.148 37.7065 152.052 34.8585C151.988 31.9785 151.94 29.1465 151.908 26.3625C151.908 23.5465 152.052 20.7945 152.34 18.1065V18.0105C152.5 17.9785 152.804 17.9945 153.252 18.0585C153.732 18.0905 154.084 18.1065 154.308 18.1065C154.884 18.1385 155.54 18.1865 156.276 18.2505ZM185.017 52.1385C184.793 52.2025 184.409 52.2345 183.865 52.2345C183.225 52.2345 182.489 52.1865 181.657 52.0905C180.825 52.0265 180.089 51.9945 179.449 51.9945C178.393 49.6265 177.337 47.3385 176.281 45.1305C175.257 42.8905 174.377 40.7465 173.641 38.6985L173.161 37.2585C173.033 36.9065 172.905 36.5865 172.777 36.2985C172.681 35.9785 172.601 35.8185 172.537 35.8185C172.505 35.8185 172.457 36.2025 172.393 36.9705C172.361 37.7385 172.329 38.7145 172.297 39.8985C172.265 41.0825 172.233 42.3945 172.201 43.8345V48.0105V50.1705C172.201 50.8425 172.217 51.4505 172.249 51.9945C171.897 52.0905 171.545 52.1545 171.193 52.1865C170.841 52.2185 170.489 52.2345 170.137 52.2345C169.369 52.2345 168.585 52.1865 167.785 52.0905C167.017 51.9945 166.265 51.9465 165.529 51.9465V48.5865C165.529 45.5465 165.497 42.6505 165.433 39.8985C165.401 37.1465 165.385 34.2665 165.385 31.2585C165.385 29.0505 165.417 26.8745 165.481 24.7305C165.545 22.5545 165.657 20.4425 165.817 18.3945C166.137 18.3305 166.473 18.2825 166.825 18.2505C167.209 18.2185 167.593 18.2025 167.977 18.2025C168.169 18.2025 168.489 18.2185 168.937 18.2505C169.385 18.2505 169.833 18.2825 170.281 18.3465C170.729 18.3785 171.113 18.4265 171.433 18.4905C171.785 18.5545 171.961 18.6185 171.961 18.6825C172.185 19.2585 172.393 19.7385 172.585 20.1225C172.777 20.5065 172.953 20.8745 173.113 21.2265C173.305 21.5785 173.497 21.9785 173.689 22.4265C173.913 22.8425 174.169 23.3865 174.457 24.0585C174.521 24.2185 174.665 24.5225 174.889 24.9705C175.113 25.4185 175.369 25.9465 175.657 26.5545C175.945 27.1305 176.249 27.7545 176.569 28.4265C176.889 29.0665 177.177 29.6585 177.433 30.2025C177.721 30.7145 177.961 31.1625 178.153 31.5465C178.345 31.8985 178.457 32.0745 178.489 32.0745C178.585 32.0105 178.665 31.6905 178.729 31.1145C178.793 30.5385 178.825 29.9785 178.825 29.4345C178.825 28.1545 178.793 26.9705 178.729 25.8825C178.697 24.7625 178.681 23.6265 178.681 22.4745V20.4585C178.713 19.7545 178.745 19.0025 178.777 18.2025C179.865 18.0105 181.017 17.9145 182.233 17.9145C183.417 17.9145 184.473 18.0105 185.401 18.2025V33.6585C185.433 35.0025 185.449 36.3625 185.449 37.7385V41.8665C185.449 42.7945 185.433 43.6905 185.401 44.5545V47.1945V49.1145C185.433 49.7545 185.449 50.3945 185.449 51.0345V51.9945C185.385 52.0265 185.241 52.0745 185.017 52.1385Z" fill="url(#paint0_linear)"/>
<defs>
<linearGradient id="paint0_linear" x1="123.655" y1="1.03912" x2="123.655" y2="74.1982" gradientUnits="userSpaceOnUse">
<stop stop-color="#00C9C8" stop-opacity="0.44"/>
<stop offset="0.494792" stop-color="#33B6CD"/>
<stop offset="1" stop-color="#7D9BD3"/>
</linearGradient>
<clipPath id="clip0">
<rect width="50" height="50" fill="white" transform="translate(0 8.77045) rotate(-10.1025)"/>
</clipPath>
</defs>
</svg>
