<svg xmlns="http://www.w3.org/2000/svg" width="32" height="32" fill="none" xmlns:v="https://vecta.io/nano"><path d="M31.904 9.403c-.078-1.703-.348-2.866-.744-3.884a7.84 7.84 0 0 0-1.845-2.834c-.799-.814-1.766-1.444-2.834-1.846C25.463.444 24.3.174 22.597.097L16 0 9.403.096C7.7.174 6.537.445 5.52.84a7.84 7.84 0 0 0-2.834 1.845C1.872 3.485 1.241 4.452.84 5.519.444 6.537.174 7.7.097 9.403L0 16l.097 6.597c.078 1.703.348 2.866.744 3.884a7.84 7.84 0 0 0 1.845 2.834A7.84 7.84 0 0 0 5.52 31.16c1.018.396 2.181.666 3.884.744L16 32l6.597-.096c1.703-.078 2.866-.348 3.884-.744a8.18 8.18 0 0 0 4.679-4.679c.396-1.018.666-2.181.744-3.884L32 16l-.096-6.597h0zm-2.88 13.062c-.071 1.56-.332 2.407-.551 2.971a5.3 5.3 0 0 1-3.037 3.037c-.564.219-1.411.48-2.971.551L16 29.117c-4.273 0-4.779-.016-6.466-.093-1.56-.071-2.407-.332-2.971-.551-.695-.256-1.323-.665-1.84-1.197-.532-.516-.94-1.145-1.197-1.84-.219-.564-.48-1.411-.551-2.971L2.883 16l.093-6.466c.071-1.56.332-2.407.551-2.971a4.96 4.96 0 0 1 1.197-1.84c.516-.532 1.145-.94 1.84-1.197.564-.219 1.411-.48 2.971-.551L16 2.883h0l6.465.094c1.56.071 2.407.332 2.971.551a4.96 4.96 0 0 1 1.84 1.197c.532.516.94 1.145 1.197 1.84.219.564.48 1.411.551 2.971L29.117 16l-.093 6.466z" fill="url(#A)"/><path d="M16 7.784A8.22 8.22 0 0 0 7.784 16 8.22 8.22 0 0 0 16 24.216 8.22 8.22 0 0 0 24.216 16 8.22 8.22 0 0 0 16 7.784h0zm0 13.55c-2.945 0-5.333-2.388-5.333-5.334s2.388-5.333 5.333-5.333 5.333 2.388 5.333 5.333-2.388 5.334-5.334 5.334h0z" fill="url(#B)"/><path d="M26.461 7.459a1.92 1.92 0 1 1-3.84 0 1.92 1.92 0 1 1 3.84 0h0z" fill="url(#C)"/><defs><linearGradient id="A" x1="2.685" y1="29.314" x2="29.315" y2="2.685" gradientUnits="userSpaceOnUse"><stop stop-color="#ffd600"/><stop offset=".5" stop-color="#ff0100"/><stop offset="1" stop-color="#d800b9"/></linearGradient><linearGradient id="B" x1="10.19" y1="21.81" x2="21.81" y2="10.19" gradientUnits="userSpaceOnUse"><stop stop-color="#ff6400"/><stop offset=".5" stop-color="#ff0100"/><stop offset="1" stop-color="#fd0056"/></linearGradient><linearGradient id="C" x1="23.183" y1="8.817" x2="25.898" y2="6.102" gradientUnits="userSpaceOnUse"><stop stop-color="#f30072"/><stop offset="1" stop-color="#e50097"/></linearGradient></defs></svg>