<svg xmlns="http://www.w3.org/2000/svg" width="32" height="32" fill="none" xmlns:v="https://vecta.io/nano"><path d="M32 0H0V32H32V0Z" fill="#00c200"/><path d="M27.615 15.42c.054-.283.08-.522.093-.709.02-.309-.003-.767-.011-.91-.284-4.944-5.414-8.883-11.699-8.883-6.468 0-11.712 4.171-11.712 9.315 0 4.729 4.43 8.635 10.169 9.235.351.037.604.354.565.704l-.244 2.199a.64.64 0 0 0 .913.644c4.849-2.34 7.748-4.747 9.48-6.833.315-.38 1.342-1.819 1.552-2.197.445-.803.751-1.664.895-2.567z" fill="#fff"/><path d="M9.557 16.121v-3.924a.6.6 0 0 0-.599-.599.6.6 0 0 0-.599.599v4.523a.6.6 0 0 0 .599.599h2.396a.6.6 0 0 0 .599-.599.6.6 0 0 0-.599-.599H9.557zm3.695 1.198h-.262a.47.47 0 0 1-.468-.468v-4.785a.47.47 0 0 1 .468-.468h.262a.47.47 0 0 1 .468.468v4.785a.47.47 0 0 1-.468.468zm4.842-5.122v2.763l-2.429-3.162a.6.6 0 0 0-.47-.2c-.326.012-.576.297-.576.623v4.498a.6.6 0 0 0 .599.599.6.6 0 0 0 .599-.599v-2.746l2.465 3.182a.6.6 0 0 0 .405.164c.333.003.605-.291.605-.624v-4.498a.6.6 0 0 0-.599-.599.6.6 0 0 0-.599.599zm5.691 0a.6.6 0 0 0-.599-.599H20.79a.6.6 0 0 0-.599.599v4.523a.6.6 0 0 0 .599.599h2.396a.6.6 0 0 0 .599-.599.6.6 0 0 0-.599-.599h-1.797v-1.063h1.797a.6.6 0 0 0 .599-.599.6.6 0 0 0-.599-.599h-1.797v-1.063h1.797a.6.6 0 0 0 .599-.599z" fill="#00c500"/></svg>