<svg width="392" height="392" viewBox="0 0 392 392" fill="none" xmlns="http://www.w3.org/2000/svg">
<g id="turtle">
<path id="right hand" d="M299.407 179.093C305.75 177.642 312.408 179.198 317.453 183.309C336.006 195.835 364.138 234.172 335.894 276.007C307.649 317.842 295.087 336.448 288.908 325.54C282.729 314.633 287.316 290.648 299.877 272.042C310.282 256.631 307.628 235.801 291.761 235.919L299.407 179.093Z" fill="#26B99A"/>
<path id="right foot" d="M217.578 294C218.489 308.752 217.854 329.013 208.785 338.082C193.636 353.231 155.224 360.351 147.418 352.551C139.612 344.752 166.287 325.883 169.918 314.364C171.031 310.979 171.171 307.35 170.322 303.89L217.578 294Z" fill="#26B99A"/>
<path id="left foot" d="M89.7404 166.274C74.9566 165.363 54.7275 165.998 45.6584 175.067C30.509 190.216 23.3897 228.628 31.2017 236.434C39.0137 244.24 57.8703 217.565 69.3895 213.934C72.7739 212.821 76.4031 212.681 79.8632 213.53L89.7404 166.274Z" fill="#26B99A"/>
<path id="left hand" d="M140.324 92.5156C137.419 76.9172 116.465 78.2769 103.317 91.4252C87.4424 107.299 64.7504 116.279 52.8849 112.379C41.0194 108.479 56.8743 92.4963 92.567 56.8228C128.26 21.1493 171.251 41.4297 187.081 57.2782C192.077 61.4474 194.872 67.6876 194.655 74.1913L140.324 92.5156Z" fill="#26B99A"/>
<g id="body">
<path id="Shape" d="M265.074 74.2036C271.238 62.6588 276.773 48.1764 287.882 44.5911C303.121 39.691 328.519 34.887 338.814 45.1812C349.108 55.4753 344.304 80.8739 339.404 96.1131C335.818 107.222 321.31 112.757 309.791 118.921L265.074 74.2036Z" fill="#14A085"/>
<path id="Shape_2" d="M87.4698 269.677C79.5359 279.336 67.2471 297.634 71.2365 312.758C86.3858 316.748 104.659 304.459 114.318 296.525L87.4698 269.677Z" fill="#14A085"/>
<path id="Shape_3" d="M302.505 244.721C271.334 275.885 217.202 300.752 168.008 304.369C143.283 306.216 116.467 302.875 98.4181 285.577C81.133 267.541 77.785 240.616 79.6257 215.987C82.9673 170.449 105.698 115.066 139.274 81.4897C188.814 31.9495 239.573 45.7392 288.908 95.0869C338.454 144.633 351.891 195.36 302.505 244.721V244.721Z" fill="#F0C419"/>
<path id="Shape_4" d="M326.3 211.882L302.569 202.467C312.677 181.603 310.541 154.96 275.246 117.805L293.397 99.6407C291.922 98.1014 290.447 96.6262 288.908 95.0869C287.368 93.5476 285.893 92.0725 284.354 90.5973L266.197 108.755C229.035 73.4789 202.392 71.3238 181.534 81.432L172.119 57.7009C168.191 59.5007 164.397 61.5798 160.767 63.9223L170.458 88.2049C165.833 91.6777 161.472 95.4895 157.412 99.6087C142.401 115.305 130.359 133.591 121.867 153.581L97.6485 145.435C95.9381 149.348 94.3347 153.324 92.8381 157.365L117.018 165.44C102.908 203.121 99.7009 242.521 112.567 262.333L94.185 280.766C95.5319 282.434 96.943 284.037 98.4181 285.577C99.9574 287.052 101.561 288.463 103.228 289.81L121.636 271.428C141.448 284.307 180.848 281.106 218.529 266.977L226.604 291.157C230.645 289.681 234.621 288.078 238.534 286.346L230.395 262.134C250.384 253.643 268.67 241.6 284.367 226.589C288.488 222.531 292.3 218.17 295.771 213.543L320.079 223.235C322.421 219.604 324.5 215.81 326.3 211.882V211.882Z" fill="#F29C1F"/>
<path id="Shape_5" d="M250.752 174.567L330.405 158.648C329.277 154.455 327.818 150.359 326.044 146.397L247.212 162.201L221.794 136.783L237.597 57.951C233.635 56.1763 229.539 54.7179 225.347 53.5897L209.428 133.243L173.588 143.024L126.575 95.9848C123.881 99.32 121.315 102.848 118.878 106.439L164.531 152.093L154.75 187.959L81.1009 202.646C80.3954 207.136 79.9464 211.626 79.6257 215.987L158.336 200.305L183.689 225.659L168.008 304.369C172.369 304.048 176.859 303.599 181.348 302.894L196.036 229.244L231.883 219.463L277.555 265.117C281.147 262.679 284.675 260.114 288.01 257.42L240.971 210.439L250.752 174.567Z" fill="#E57E25"/>
</g>
</g>
</svg>
