<svg width="68" height="68" viewBox="0 0 68 68" fill="none" xmlns="http://www.w3.org/2000/svg">
<g id="turtle-pink">
<path id="tail" d="M55.6221 49.4643C57.3015 51.3008 59.938 54.8088 59.3047 57.8577C56.3351 58.8109 52.5724 56.5609 50.5683 55.0857L55.6221 49.4643Z" fill="#FFA2A2"/>
<path id="pink-left-foot" d="M35.4751 47.0418C33.3289 49.0548 30.6544 52.0771 30.7301 54.6294C30.8566 58.8928 35.45 65.1692 37.6458 65.105C39.8416 65.0407 38.5532 58.6646 39.6001 56.4999C39.9008 55.8575 40.3761 55.3126 40.9716 54.9272L35.4751 47.0418Z" fill="#FFA1A1"/>
<path id="pink-right-foot" d="M48.0518 38.4545C49.3208 35.8704 51.3754 32.5159 53.7827 31.8593C57.804 30.7624 64.9879 33.265 65.5565 35.3369C66.1251 37.4088 59.7971 38.02 58.0741 39.6149C57.5599 40.079 57.1869 40.6783 56.9976 41.3445L48.0518 38.4545Z" fill="#FFA1A1"/>
<g id="pink-left-hand">
<path id="shape" d="M24.5648 34.9248C23.5656 34.1002 22.242 33.7824 20.9773 34.0634C16.5573 34.6352 8.12793 38.9442 9.41737 48.9106C10.7068 58.8769 11.2803 63.3093 13.3539 61.9203C15.4275 60.5313 16.7534 55.854 16.1799 51.4215C15.7049 47.7502 18.0375 44.281 20.8501 45.7189L24.5648 34.9248Z" fill="#FFA1A1"/>
<ellipse id="Ellipse 1" rx="0.836525" ry="1.30042" transform="matrix(-0.998537 -0.0540654 -0.0573723 0.998353 10.8307 48.4349)" fill="#FEDDAA"/>
<ellipse id="Ellipse 2" rx="0.558151" ry="0.721894" transform="matrix(-0.99994 -0.0109679 -0.022098 0.999756 11.4411 50.9022)" fill="#FEDDAA"/>
</g>
<g id="pink-right-hand">
<path id="shape_2" d="M46.0121 19.9616C44.7095 17.0838 48.2857 14.9188 51.9303 15.5678C56.3305 16.3513 61.0584 15.2325 62.5516 13.2441C64.0447 11.2557 59.6352 10.4521 49.7437 8.69351C39.8521 6.93486 35.1429 15.1436 34.3637 19.5345C34.0229 20.7844 34.2774 22.1216 35.0536 23.1589L46.0121 19.9616Z" fill="#FFA1A1"/>
<ellipse id="Ellipse 3" rx="0.507439" ry="0.977112" transform="matrix(0.32878 -0.944407 -0.943313 -0.331906 51.4529 10.5735)" fill="#FEDDAA"/>
<ellipse id="Ellipse 4" rx="0.409429" ry="0.582458" transform="matrix(0.350234 -0.936662 -0.932705 -0.360639 49.5112 10.0819)" fill="#FEDDAA"/>
</g>
<g id="pink-body">
<path id="Shape" d="M21.7969 12.0094C20.5698 9.71096 19.4678 6.8277 17.2562 6.11391C14.2222 5.13835 9.16569 4.18194 7.11625 6.23138C5.06681 8.28082 6.02321 13.3374 6.99877 16.3713C7.71256 18.5829 10.6009 19.6849 12.8943 20.912L21.7969 12.0094Z" fill="#FFA1A1"/>
<path id="Shape_2" d="M14.3448 45.9565C20.5506 52.161 31.3277 57.1116 41.1216 57.8318C46.0441 58.1995 51.3828 57.5342 54.976 54.0904C58.4173 50.4997 59.0838 45.1393 58.7174 40.236C58.0521 31.1699 53.5267 20.1438 46.8421 13.4592C36.9793 3.59635 26.8738 6.3417 17.0519 16.1662C7.18773 26.0303 4.51261 36.1294 14.3448 45.9565V45.9565Z" fill="#FF8383"/>
<path id="Shape_3" d="M9.60749 39.4187L14.332 37.5442C12.3196 33.3904 12.7448 28.0862 19.7717 20.689L16.158 17.0728C16.4517 16.7664 16.7454 16.4727 17.0519 16.1662C17.3583 15.8598 17.652 15.5661 17.9585 15.2724L21.5734 18.8873C28.9718 11.8643 34.2761 11.4353 38.4286 13.4477L40.3031 8.72311C41.0851 9.08142 41.8404 9.49535 42.5632 9.96172L40.6338 14.7961C41.5546 15.4875 42.4227 16.2464 43.231 17.0664C46.2195 20.1914 48.6171 23.8319 50.3077 27.8116L55.1293 26.1899C55.4698 26.9689 55.789 27.7605 56.0869 28.565L51.273 30.1726C54.0822 37.6745 54.7207 45.5185 52.1592 49.4629L55.8188 53.1327C55.5506 53.4647 55.2697 53.7839 54.976 54.0904C54.6696 54.3841 54.3503 54.665 54.0184 54.9332L50.3536 51.2735C46.4093 53.8376 38.5652 53.2004 31.0634 50.3874L29.4557 55.2013C28.6513 54.9076 27.8596 54.5884 27.0807 54.2436L28.7011 49.4233C24.7214 47.7327 21.0809 45.3351 17.9559 42.3467C17.1355 41.5387 16.3766 40.6705 15.6856 39.7494L10.8461 41.6788C10.3797 40.956 9.96579 40.2007 9.60749 39.4187V39.4187Z" fill="#FFA1A1"/>
<path id="Shape_4" d="M24.6482 31.9897L8.79026 28.8204C9.01489 27.9858 9.30523 27.1703 9.65856 26.3815L25.353 29.5278L30.4134 24.4674L27.2671 8.77293C28.0559 8.4196 28.8714 8.12926 29.706 7.90463L32.8753 23.7626L40.0107 25.7098L49.3704 16.345C49.9067 17.009 50.4175 17.7113 50.9027 18.4264L41.8137 27.5154L43.761 34.6559L58.4237 37.58C58.5641 38.4738 58.6535 39.3676 58.7174 40.2359L43.0472 37.1139L37.9995 42.1615L41.1216 57.8317C40.2533 57.7679 39.3594 57.6785 38.4656 57.5381L35.5415 42.8753L28.4049 40.928L19.312 50.0171C18.5969 49.5318 17.8946 49.0211 17.2306 48.4848L26.5955 39.1314L24.6482 31.9897Z" fill="#FFBCBC"/>
</g>
</g>
</svg>
