<svg width="100" height="100" viewBox="0 0 100 100" fill="none" xmlns="http://www.w3.org/2000/svg">
<g id="turtle-flat">
<path id="right-hand" d="M75.869 46.1971C77.4873 45.8271 79.1858 46.2239 80.4726 47.2726C85.2056 50.4681 92.3822 60.2479 85.1769 70.9202C77.9717 81.5924 74.7672 86.3388 73.1909 83.5562C71.6146 80.7736 72.7846 74.6551 75.9891 69.9086C78.6434 65.9773 77.9662 60.6636 73.9187 60.6936L75.869 46.1971Z" fill="#26B99A"/>
<path id="right-foot" d="M55.7598 74.4898C55.9921 78.253 55.8302 83.4217 53.5166 85.7352C49.652 89.5998 39.853 91.416 37.8617 89.4264C35.8705 87.4368 42.6753 82.6232 43.6014 79.6846C43.8855 78.8213 43.9212 77.8955 43.7045 77.0128L55.7598 74.4898Z" fill="#26B99A"/>
<path id="left-foot" d="M23.9134 42.4167C20.142 42.1844 14.9815 42.3464 12.668 44.6599C8.80333 48.5246 6.98718 58.3236 8.98004 60.3148C10.9729 62.306 15.7832 55.5012 18.7218 54.5751C19.5852 54.2911 20.511 54.2553 21.3937 54.472L23.9134 42.4167Z" fill="#26B99A"/>
<path id="left-hand" d="M35.5419 23.856C34.8007 19.8768 29.4553 20.2237 26.1012 23.5779C22.0516 27.6274 16.2629 29.918 13.2359 28.9232C10.209 27.9284 14.2536 23.8511 23.3589 14.7507C32.4642 5.65033 43.4315 10.8239 47.4696 14.8669C48.7441 15.9305 49.4571 17.5223 49.4019 19.1815L35.5419 23.856Z" fill="#26B99A"/>
<g id="body">
<path id="Shape" d="M67.621 18.9295C69.1933 15.9844 70.6053 12.2899 73.4392 11.3753C77.3267 10.1252 83.806 8.89975 86.432 11.5258C89.0581 14.1519 87.8326 20.6311 86.5826 24.5186C85.6679 27.3525 81.9669 28.7645 79.0284 30.3369L67.621 18.9295Z" fill="#26B99A"/>
<path id="Shape_2" d="M77.1697 62.4287C69.2179 70.3789 55.4086 76.7223 42.8591 77.6451C36.5517 78.1164 29.7109 77.2639 25.1067 72.8512C20.6972 68.2502 19.8431 61.3816 20.3127 55.0987C21.1651 43.4819 26.9637 29.3535 35.5291 20.7882C48.1669 8.15037 61.1155 11.6681 73.701 24.2568C86.3404 36.8963 89.7682 49.8368 77.1697 62.4287Z" fill="#FFC66C"/>
<path id="Shape_3" d="M83.2399 54.0515L77.186 51.6496C79.7646 46.3272 79.2198 39.5305 70.2159 30.0522L74.8463 25.4185C74.47 25.0259 74.0937 24.6495 73.701 24.2569C73.3083 23.8642 72.932 23.4879 72.5393 23.1115L67.9073 27.7435C58.4273 18.7446 51.6307 18.1948 46.3098 20.7734L43.9079 14.7196C42.9059 15.1787 41.9381 15.7091 41.0119 16.3067L43.4842 22.5012C42.3043 23.3872 41.1919 24.3595 40.1562 25.4104C36.3269 29.4145 33.2548 34.0793 31.0885 39.1787L24.9103 37.1008C24.474 38.0989 24.065 39.1133 23.6832 40.1441L29.8516 42.204C26.252 51.8165 25.4339 61.8675 28.7161 66.9217L24.0268 71.624C24.3704 72.0494 24.7304 72.4585 25.1067 72.8512C25.4994 73.2275 25.9084 73.5874 26.3338 73.931L31.0296 69.2418C36.0838 72.5272 46.1348 71.7108 55.7473 68.1063L57.8072 74.2746C58.838 73.8983 59.8524 73.4893 60.8505 73.0475L58.7742 66.871C63.8736 64.7047 68.5384 61.6326 72.5426 57.8033C73.5938 56.768 74.5662 55.6556 75.4517 54.4753L81.6528 56.9476C82.2504 56.0214 82.7807 55.0536 83.2399 54.0515Z" fill="#FFAF32"/>
<path id="Shape_4" d="M63.9674 44.5323L84.287 40.4713C83.9992 39.4019 83.6271 38.3569 83.1744 37.3462L63.0642 41.3777L56.5801 34.8936L60.6116 14.7834C59.6009 14.3307 58.5559 13.9586 57.4865 13.6708L53.4255 33.9904L44.2826 36.4856L32.2895 24.4859C31.6023 25.3367 30.9478 26.2366 30.3261 27.1529L41.9723 38.7991L39.4772 47.9486L20.689 51.6954C20.509 52.8408 20.3945 53.9861 20.3127 55.0987L40.3918 51.0982L46.8596 57.566L42.8591 77.6451C43.9717 77.5633 45.117 77.4488 46.2624 77.2688L50.0092 58.4806L59.1537 55.9855L70.8049 67.6318C71.7212 67.01 72.6211 66.3555 73.4719 65.6683L61.4722 53.6834L63.9674 44.5323Z" fill="#F7933D"/>
</g>
<path id="tail" d="M22.3137 68.7951C20.2898 71.2591 17.1549 75.9271 18.1726 79.7852C22.0372 80.8029 26.6987 77.668 29.1627 75.6441L22.3137 68.7951Z" fill="#14A085"/>
</g>
</svg>
