<svg xmlns="http://www.w3.org/2000/svg" xmlns:xlink="http://www.w3.org/1999/xlink" width="124" height="124" fill="none" xmlns:v="https://vecta.io/nano"><rect width="124" height="124" rx="62" fill="url(#A)"/><g clip-path="url(#B)" fill="#fff"><path d="M32.533 96h58.933c1.797.002 3.425-1.058 4.151-2.701s.413-3.561-.798-4.888-3.092-1.814-4.795-1.241a6.8 6.8 0 0 0-10.471-3.486 18.12 18.12 0 0 0-9.621-2.417c-3.627 0-8.144.869-10.71 3.237-1.157-.781-2.447-1.344-3.806-1.66a57.39 57.39 0 0 0 .961-10.802c0-.95-.027-1.855-.104-2.694a17.58 17.58 0 0 0 9.163-5.174 6.43 6.43 0 0 0 1.927.038c.671.496 1.419.879 2.213 1.133.573.194 1.197-.099 1.413-.664s-.054-1.2-.61-1.437a13.84 13.84 0 0 0 2.675-1.873 8.02 8.02 0 0 0 5.327 1.946 10.2 10.2 0 0 0 1.98-.202c.394-.086.713-.375.836-.759s.041-.816-.227-1.125c-.017-.012-.838-.993-.838-3.764-.125-1.297.155-2.601.802-3.732.296-.296.405-.73.283-1.13s-.453-.701-.863-.783a8.3 8.3 0 0 0-7.306 1.741c-1.757-1.712-4.068-2.739-6.517-2.896-3.649 0-6.729 2.899-8.24 4.627-.886 1.001-1.07 2.441-.466 3.632-.927.677-1.977 1.167-3.092 1.442-.227-.793-.521-1.641-.858-2.515-.366-.952-1.009-2.38-1.981-4.348a12.2 12.2 0 0 0 5.44-7.407c.38-1.523-.056-3.134-1.151-4.259a4.59 4.59 0 0 0-4.35-1.258 4.5 4.5 0 0 0-3.322 3.387 2.97 2.97 0 0 1-.896 1.439 33.95 33.95 0 0 1-1.625-3.783 1.89 1.89 0 0 0-.04-.139c-.774-2.239-3.139-3.507-5.432-2.914s-3.747 2.847-3.34 5.181a39.13 39.13 0 0 0 1.863 6.825c-.21-.075-.412-.171-.603-.287-1.081-.721-2.421-.941-3.677-.604-1.27.342-2.33 1.215-2.91 2.395-.975 2.119-.229 4.633 1.745 5.875a15.48 15.48 0 0 0 8.524 2.04 23.93 23.93 0 0 1 .793 6.196c.022.397-.008 1.014-.012 1.521a8.01 8.01 0 0 1-4.901-2.123 4.52 4.52 0 0 0-3.627-1.307 4.57 4.57 0 0 0-3.354 1.993c-1.221 1.888-.905 4.381.75 5.904a16.88 16.88 0 0 0 9.424 4.447 39.62 39.62 0 0 1-1.75 4.733 6.8 6.8 0 0 0-5.713 5.735 4.48 4.48 0 0 0-1.2-.162c-2.504 0-4.533 2.03-4.533 4.533S30.03 96 32.533 96zM78.37 53.887a11.33 11.33 0 0 0-.503 3.58 11.33 11.33 0 0 0 .503 3.58 5.78 5.78 0 0 1-3.709-1.281l.113-.127a3.27 3.27 0 0 0 0-4.345c-.035-.041-.076-.085-.113-.127a5.77 5.77 0 0 1 3.709-1.281zM60 56.787c1.258-1.439 3.78-3.853 6.534-3.853s5.276 2.414 6.534 3.853a1 1 0 0 1 0 1.36 11.92 11.92 0 0 1-5.012 3.596 1.86 1.86 0 0 1-.389-.907c-.009-.626-.523-1.126-1.149-1.118s-1.127.523-1.118 1.149a3.46 3.46 0 0 0 .21 1.037c-2.38-.447-4.495-2.481-5.611-3.757a1 1 0 0 1 .001-1.36zm-26.646 13.77a2.36 2.36 0 0 1-.453-2.999c.374-.571.986-.943 1.666-1.013s1.354.172 1.836.656a10.19 10.19 0 0 0 6.211 2.763h.011.023.017a16.96 16.96 0 0 0 2.236.148 14.37 14.37 0 0 0 2.584-.209c.613-.122 1.011-.718.89-1.331s-.716-1.012-1.33-.892a12.23 12.23 0 0 1-1.904.162v-.019c.033-.586.062-1.252.036-1.683.006-2.268-.285-4.526-.866-6.718-.281-1.009-1.211-1.697-2.258-1.672-2.526.136-5.038-.454-7.239-1.7-1.009-.614-1.406-1.881-.929-2.961.287-.593.818-1.033 1.454-1.204s1.316-.059 1.863.309c.336.211.694.386 1.068.52.8.285 1.693.083 2.292-.519.625-.609.846-1.522.567-2.349-.738-2.109-1.311-4.272-1.714-6.47a2.28 2.28 0 0 1 4.369-1.229c.008.031.029.107.04.137a38.89 38.89 0 0 0 2.355 5.298c.285.545.954.763 1.506.491 1.464-.683 2.563-1.963 3.018-3.513a2.25 2.25 0 0 1 3.845-1.133c.55.563.769 1.371.579 2.135-.641 2.518-2.24 4.686-4.455 6.043l-.019.015-.724.424a8.82 8.82 0 0 1-2.662.891c-.626 0-1.133.507-1.133 1.133s.507 1.133 1.133 1.133a7.82 7.82 0 0 0 2.635-.672c.898 1.873 1.524 3.269 1.861 4.14.315.815.583 1.601.799 2.345a2.28 2.28 0 0 0 2.768 1.571c1.429-.366 2.772-1.011 3.951-1.897a14.4 14.4 0 0 0 3.763 2.727c-2.06 1.859-4.572 3.144-7.285 3.727-1.073.258-1.801 1.255-1.723 2.355a40 40 0 0 1 .077 2.564 54.98 54.98 0 0 1-.929 10.41A15.43 15.43 0 0 0 51.8 82.4a14.22 14.22 0 0 0-6.106 1.327c-.972-1.17-2.308-1.98-3.794-2.303.731-1.783 1.352-3.609 1.859-5.468.089-.326.028-.675-.166-.951s-.502-.452-.839-.478c-3.499-.191-6.823-1.594-9.399-3.97zM32.533 89.2c.586-.001 1.15.227 1.571.635.36.347.905.417 1.341.172s.66-.746.552-1.234c-.047-.232-.068-.469-.063-.706a4.52 4.52 0 0 1 8.235-2.588c.53.753.81 1.654.801 2.575-.004.301.112.59.322.805s.497.338.797.342h.014c.621 0 1.127-.5 1.133-1.121a6.65 6.65 0 0 0-.411-2.354c1.562-.709 3.26-1.071 4.975-1.059 2.139-.058 4.247.518 6.06 1.654-.262.541-.405 1.132-.418 1.733-.004.301.112.59.322.805s.497.338.797.342h.014c.621 0 1.127-.5 1.133-1.121.031-.519.238-1.013.586-1.4 1.745-2.169 6.079-3.146 9.639-3.146a16.56 16.56 0 0 1 8.009 1.829c-.523.751-.892 1.599-1.086 2.493-.062.294-.005.601.159.853s.422.429.716.491a1.12 1.12 0 0 0 .235.025c.536 0 .998-.376 1.108-.9a4.63 4.63 0 0 1 1.512-2.552 4.51 4.51 0 0 1 7.465 3.224c.018.44.289.829.694.999s.873.09 1.199-.206a2.23 2.23 0 0 1 1.521-.59c1.252 0 2.267 1.015 2.267 2.267s-1.015 2.267-2.267 2.267H32.533c-1.252 0-2.267-1.015-2.267-2.267s1.015-2.267 2.267-2.267z"/><use xlink:href="#C"/><path d="M50.667 75.6c.626 0 1.133-.507 1.133-1.133s-.507-1.133-1.133-1.133-1.133.507-1.133 1.133.508 1.133 1.133 1.133zm0-9.067c.626 0 1.133-.507 1.133-1.133s-.507-1.133-1.133-1.133-1.133.507-1.133 1.133.508 1.133 1.133 1.133zM48.4 60.867c.626 0 1.133-.507 1.133-1.133S49.026 58.6 48.4 58.6s-1.133.507-1.133 1.133.507 1.133 1.133 1.133z"/><use xlink:href="#D"/><path d="M30.267 35.933a3.4 3.4 0 1 0 6.8 0 3.4 3.4 0 1 0-6.8 0zm4.533 0c0 .626-.507 1.133-1.133 1.133s-1.133-.508-1.133-1.133.507-1.133 1.133-1.133 1.133.507 1.133 1.133zm6.8-3.4c0 2.504 2.03 4.533 4.533 4.533s4.533-2.03 4.533-4.533S48.637 28 46.133 28 41.6 30.03 41.6 32.533zm6.8 0a2.27 2.27 0 0 1-2.267 2.267 2.27 2.27 0 0 1-2.267-2.267 2.27 2.27 0 0 1 2.267-2.267 2.27 2.27 0 0 1 2.267 2.267z"/><use xlink:href="#E"/><path d="M92.551 34.47a1.13 1.13 0 0 0-.864-.782 8.3 8.3 0 0 0-7.307 1.741 10.27 10.27 0 0 0-6.514-2.896c-3.649 0-6.729 2.899-8.24 4.627a3.27 3.27 0 0 0 0 4.345c1.512 1.728 4.591 4.627 8.24 4.627a7.15 7.15 0 0 0 .829-.054 7.64 7.64 0 0 0 2.213 1.133c.573.194 1.197-.099 1.413-.664s-.054-1.2-.611-1.437c.962-.517 1.86-1.146 2.675-1.873a8.02 8.02 0 0 0 5.327 1.946 10.2 10.2 0 0 0 1.98-.202 1.13 1.13 0 0 0 .836-.759c.123-.384.041-.816-.227-1.125-.015-.012-.835-.993-.835-3.764a6.3 6.3 0 0 1 .802-3.732 1.13 1.13 0 0 0 .282-1.131zm-21.219 5.543a1 1 0 0 1 0-1.36c1.259-1.439 3.781-3.853 6.535-3.853s5.276 2.414 6.534 3.853a1 1 0 0 1 0 1.36 11.92 11.92 0 0 1-5.012 3.596 1.86 1.86 0 0 1-.389-.907c-.008-.626-.523-1.126-1.149-1.118s-1.126.523-1.118 1.149a3.46 3.46 0 0 0 .21 1.037c-2.385-.447-4.495-2.481-5.611-3.757zm18.371 2.9a5.78 5.78 0 0 1-3.709-1.281l.113-.127a3.27 3.27 0 0 0 0-4.345l-.113-.127a5.77 5.77 0 0 1 3.709-1.281 11.34 11.34 0 0 0-.503 3.58c-.025 1.213.145 2.421.503 3.58zM75.6 39.333c.626 0 1.133-.507 1.133-1.133s-.507-1.133-1.133-1.133-1.133.507-1.133 1.133.507 1.133 1.133 1.133zM64.267 57.467c.626 0 1.133-.507 1.133-1.133s-.507-1.133-1.133-1.133-1.133.507-1.133 1.133.508 1.133 1.133 1.133zm18.191 21.891c.095.285.299.521.568.656a1.13 1.13 0 0 0 .865.062 7.64 7.64 0 0 0 2.23-1.146 7.3 7.3 0 0 0 .811.07c1.784-.052 3.512-.638 4.96-1.682a17.04 17.04 0 0 0 3.287-2.947 3.27 3.27 0 0 0 0-4.345 17 17 0 0 0-3.287-2.947c-2.929-2.231-6.988-2.231-9.918 0a14.94 14.94 0 0 0-1.562 1.217 8.01 8.01 0 0 0-2.141-1.329 8.78 8.78 0 0 0-5.159-.415c-.395.086-.714.375-.838.759a1.17 1.17 0 0 0 .227 1.125c.144.196.259.411.34.64a8.42 8.42 0 0 1 .491 3.122 8.42 8.42 0 0 1-.486 3.12 2.97 2.97 0 0 1-.317.614c-.295.296-.403.731-.281 1.13s.454.7.864.781a10.19 10.19 0 0 0 1.984.203c1.088.007 2.167-.203 3.173-.618a8.01 8.01 0 0 0 2.141-1.329 14.71 14.71 0 0 0 1.563 1.217 11.74 11.74 0 0 0 1.115.655c-.538.227-.812.829-.631 1.384zm-5.056-4.021a5.98 5.98 0 0 1-2.31.443 11.3 11.3 0 0 0 .508-3.58 11.3 11.3 0 0 0-.508-3.58 5.98 5.98 0 0 1 2.31.443c.505.214.977.499 1.401.847-.036.041-.074.077-.113.113a3.27 3.27 0 0 0 0 4.345c.036.041.074.077.113.113a5.75 5.75 0 0 1-1.401.856zm2.997-2.457c-.354-.384-.354-.976 0-1.36a15.17 15.17 0 0 1 2.833-2.553 5.91 5.91 0 0 1 7.394 0 15.13 15.13 0 0 1 2.833 2.555c.353.385.353.975 0 1.36a15.14 15.14 0 0 1-2.833 2.553c-.831.59-1.776 1.002-2.774 1.208a3.58 3.58 0 0 0 .215-1.043c.008-.626-.492-1.14-1.118-1.149s-1.14.492-1.149 1.118a1.72 1.72 0 0 1-.263.722c-.04.066-.1.124-.146.187a7.98 7.98 0 0 1-2.153-1.044 15.15 15.15 0 0 1-2.839-2.555zm8.801-.68c.541 0 1.006-.382 1.112-.912s-.178-1.061-.678-1.268-1.076-.032-1.376.417-.242 1.049.141 1.431a1.13 1.13 0 0 0 .801.332zM65.4 40.467c.626 0 1.133-.507 1.133-1.133S66.026 38.2 65.4 38.2s-1.133.507-1.133 1.133.507 1.133 1.133 1.133zm2.267-4.534c.626 0 1.133-.507 1.133-1.133s-.507-1.133-1.133-1.133-1.133.508-1.133 1.133.507 1.133 1.133 1.133z"/></g><defs><linearGradient id="A" x1="62" y1="0" x2="70.359" y2="116.902" gradientUnits="userSpaceOnUse"><stop stop-color="#00c9c8"/><stop offset="1" stop-color="#7d9bd3"/></linearGradient><clipPath id="B"><path fill="#fff" transform="translate(28 28)" d="M0 0h68v68H0z"/></clipPath><path id="C" d="M47.267 80.133c.626 0 1.133-.507 1.133-1.133s-.507-1.133-1.133-1.133-1.133.507-1.133 1.133.508 1.133 1.133 1.133z"/><path id="D" d="M42.733 55.2c.626 0 1.133-.507 1.133-1.133s-.507-1.133-1.133-1.133-1.133.508-1.133 1.133.507 1.133 1.133 1.133z"/><path id="E" d="M38.2 32.533c.626 0 1.133-.507 1.133-1.133s-.507-1.133-1.133-1.133-1.133.507-1.133 1.133.507 1.133 1.133 1.133z"/></defs></svg>