<svg xmlns="http://www.w3.org/2000/svg" width="32" height="32" fill="none" xmlns:v="https://vecta.io/nano"><g clip-path="url(#A)"><path d="M30.234 0H1.765C.79 0 0 .791 0 1.766v28.469C0 31.21.791 32 1.766 32h28.467c.975 0 1.766-.79 1.766-1.766V1.765C32 .79 31.209 0 30.234 0h0z" fill="#4267b2"/><path d="M22.094 32V19.625h4.172l.625-4.844h-4.797v-3.085c0-1.399.388-2.353 2.395-2.353h2.543V5.023c-.442-.059-1.96-.19-3.726-.19-3.687 0-6.211 2.25-6.211 6.384v3.565h-4.156v4.844h4.156V32h5z" fill="#fff"/></g><defs><clipPath id="A"><path fill="#fff" d="M0 0h32v32H0z"/></clipPath></defs></svg>