<svg xmlns="http://www.w3.org/2000/svg" width="32" height="32" fill="none" xmlns:v="https://vecta.io/nano"><g clip-path="url(#A)"><path d="M31.341 8.318a4.01 4.01 0 0 0-2.82-2.821C26.016 4.813 16 4.813 16 4.813s-10.016 0-12.52.659c-1.344.369-2.451 1.476-2.82 2.847C0 10.822 0 16.015 0 16.015s0 5.219.659 7.697a4.01 4.01 0 0 0 2.821 2.821c2.53.685 12.52.685 12.52.685s10.016 0 12.52-.659a4.01 4.01 0 0 0 2.821-2.82C32 21.234 32 16.042 32 16.042s.026-5.219-.659-7.723z" fill="red"/><path d="M12.811 20.813l8.329-4.797-8.329-4.797v9.595z" fill="#fff"/></g><defs><clipPath id="A"><path fill="#fff" d="M0 0h32v32H0z"/></clipPath></defs></svg>